<?xml version="1.0" encoding="UTF-8"?>
<svg xmlns="http://www.w3.org/2000/svg" viewBox="0 0 512 512">
  <defs>
    <style>
      .cls-1 {
        fill: none;
        stroke: #272525;
        stroke-miterlimit: 10;
        stroke-width: 5px;
      }

      .cls-2 {
        fill: #fff;
      }

      .cls-3 {
        fill: #a20016;
      }
    </style>
  </defs>
  <g id="Layer_3" data-name="Layer 3">
    <path class="cls-3" d="M261.94,66.94c26.82,0,38.16-30.94,38.16-30.94h76.33s111.91,121.71,111.91,121.71l-61.89,54.15-48.99-34.04-.99,128.45-124.62-.2h-2.31s-115.22,0-115.22,0l-.52-128.25-48.61,34.1-61.89-54.15,112.38-122.74,70.53,1.32s11.35,30.94,38.16,30.94l17.56-.36Z"/>
    <polygon class="cls-3" points="260.21 409.36 267.43 450.62 284.45 465.06 377.8 465.06 377.8 307.77 254.03 307.77 259.12 307.77 135.35 307.77 135.35 465.06 228.7 465.06 245.71 450.62 252.93 409.36 260.21 409.36"/>
  </g>
  <g id="Layer_2" data-name="Layer 2">
    <path class="cls-2" d="M132.54,38.61l-12.71,13.85,87.58.22s12.91,28.81,46.28,28.81c39.02,0,49.46-29.04,49.46-29.04h88.26l-16.7-17.6-72.46.05s-15.43,32.51-48.55,32.51-41.97-32.44-41.97-32.44l-76.05.06-3.13,3.57"/>
    <line class="cls-3" x1="108.01" y1="66.96" x2="134.82" y2="36"/>
  </g>
  <g id="Layer_1" data-name="Layer 1">
    <polygon class="cls-2" points="426.45 211.86 414.39 203.52 479.29 147.08 488.34 157.71 426.45 211.86"/>
    <polygon class="cls-2" points="85.18 211.92 97.24 203.58 32.34 147.15 23.3 157.77 85.18 211.92"/>
    <path class="cls-1" d="M261.94,66.94c26.82,0,38.16-30.94,38.16-30.94h76.33s111.91,121.71,111.91,121.71l-61.89,54.15-48.99-34.04-.52,127.9h-120.16s-2.31,0-2.31,0h-120.16l-.52-127.9-48.99,34.04-61.89-54.15,111.91-121.71h76.33s11.35,30.94,38.16,30.94h12.62Z"/>
    <polygon points="134.87 464.7 134.48 447.31 223.65 445.62 249.04 430.95 245.24 450.26 228.22 464.7 134.87 464.7"/>
    <polygon points="379.01 466.17 379.4 448.78 290.24 447.08 264.84 432.41 268.65 451.73 285.67 466.17 379.01 466.17"/>
    <polygon class="cls-1" points="259.74 409.01 266.96 450.26 283.97 464.7 377.32 464.7 377.32 307.41 253.55 307.41 258.64 307.41 134.87 307.41 134.87 464.7 228.22 464.7 245.24 450.26 252.46 409.01 259.74 409.01"/>
    <path d="M339.16,118.62v-12.51h-12.76v12.31h-8.31v-12.71h-7.21s-6.88.01-6.88.01v12.71h-8.31v-12.31h-13.36v12.51h5.7v27.6h-6.12v10.08h29.36-.45s28.2-.01,28.2-.01v-10.08h-4.96v-27.6h5.1ZM317.19,152.81l-13.22-.04v-13.82h13.26l-.04,13.86Z"/>
    <polygon class="cls-3" points="98 99.18 103.82 93.31 102.56 101.48 109.94 105.21 101.78 106.53 100.52 114.71 96.73 107.35 88.57 108.68 94.4 102.81 90.61 95.45 98 99.18"/>
    <polygon class="cls-3" points="78.81 119.63 84.64 113.76 83.38 121.94 90.76 125.67 82.6 126.99 81.33 135.16 77.55 127.81 69.39 129.13 75.21 123.26 71.43 115.91 78.81 119.63"/>
    <polygon class="cls-3" points="59.12 140.64 64.94 134.77 63.68 142.94 71.06 146.67 62.9 147.99 61.64 156.17 57.85 148.81 49.69 150.14 55.51 144.27 51.73 136.91 59.12 140.64"/>
    <polygon class="cls-3" points="454.93 139.66 460.71 145.58 452.55 144.19 448.71 151.51 447.52 143.33 439.36 141.94 446.78 138.27 445.58 130.09 451.36 136.01 458.77 132.34 454.93 139.66"/>
    <polygon class="cls-3" points="434.78 120.16 440.55 126.08 432.4 124.69 428.56 132.01 427.36 123.83 419.21 122.44 426.62 118.77 425.42 110.59 431.2 116.51 438.62 112.84 434.78 120.16"/>
    <polygon class="cls-3" points="414.08 100.14 419.86 106.06 411.71 104.67 407.86 111.99 406.67 103.81 398.51 102.42 405.93 98.75 404.73 90.56 410.51 96.48 417.92 92.81 414.08 100.14"/>
  </g>
</svg>