<?xml version="1.0" encoding="UTF-8"?>
<svg xmlns="http://www.w3.org/2000/svg" viewBox="0 0 512 512">
  <defs>
    <style>
      .cls-1 {
        fill: none;
        stroke: #272525;
        stroke-miterlimit: 10;
        stroke-width: 5px;
      }

      .cls-2 {
        fill: #a20016;
      }
    </style>
  </defs>
  <g id="Layer_2" data-name="Layer 2">
    <polyline class="cls-2" points="134.48 268.42 378.28 268.42 378.28 281.96 134.48 281.96 134.48 268.42"/>
    <polyline class="cls-2" points="135.04 175.58 378.84 175.58 378.84 189.13 135.04 189.13 135.04 175.58"/>
  </g>
  <g id="Layer_1" data-name="Layer 1">
    <polygon class="cls-2" points="426.45 211.86 414.39 203.52 479.29 147.08 488.34 157.71 426.45 211.86"/>
    <polygon class="cls-2" points="85.18 211.92 97.24 203.58 32.34 147.15 23.3 157.77 85.18 211.92"/>
    <path class="cls-1" d="M261.94,66.94c26.82,0,38.16-30.94,38.16-30.94h76.33s111.91,121.71,111.91,121.71l-61.89,54.15-48.99-34.04-.52,127.9h-120.16s-2.31,0-2.31,0h-120.16l-.52-127.9-48.99,34.04-61.89-54.15,111.91-121.71h76.33s11.35,30.94,38.16,30.94h12.62Z"/>
    <polygon class="cls-2" points="134.87 464.7 134.48 447.31 223.65 445.62 249.04 430.95 245.24 450.26 228.22 464.7 134.87 464.7"/>
    <polygon class="cls-2" points="379.01 466.17 379.4 448.78 290.24 447.08 264.84 432.41 268.65 451.73 285.67 466.17 379.01 466.17"/>
    <polygon class="cls-1" points="259.74 409.01 266.96 450.26 283.97 464.7 377.32 464.7 377.32 307.41 253.55 307.41 258.64 307.41 134.87 307.41 134.87 464.7 228.22 464.7 245.24 450.26 252.46 409.01 259.74 409.01"/>
    <path d="M283.86,218.63v-12.51h-12.76v12.31h-8.31v-12.71h-7.21s-6.88.01-6.88.01v12.71h-8.31v-12.31h-13.36v12.51h5.7v27.6h-6.12v10.08h29.36-.45s28.2-.01,28.2-.01v-10.08h-4.96v-27.6h5.1ZM261.89,252.81l-13.22-.04v-13.82h13.26l-.04,13.86Z"/>
    <polygon class="cls-2" points="213.21 226.68 221.48 226.92 214.66 231.59 216.99 239.52 210.44 234.47 203.61 239.14 206.39 231.35 199.84 226.3 208.1 226.54 210.88 218.75 213.21 226.68"/>
    <polygon class="cls-2" points="185.17 226.68 193.44 226.92 186.61 231.59 188.94 239.52 182.39 234.47 175.57 239.14 178.34 231.35 171.79 226.3 180.06 226.54 182.84 218.75 185.17 226.68"/>
    <polygon class="cls-2" points="156.38 226.68 164.64 226.92 157.82 231.59 160.15 239.52 153.6 234.47 146.77 239.14 149.55 231.35 143 226.3 151.27 226.54 154.04 218.75 156.38 226.68"/>
    <polygon class="cls-2" points="358.48 227.33 366.75 227.57 359.92 232.24 362.25 240.17 355.7 235.13 348.88 239.8 351.65 232 345.1 226.96 353.37 227.19 356.15 219.4 358.48 227.33"/>
    <polygon class="cls-2" points="330.44 227.33 338.71 227.57 331.88 232.24 334.21 240.17 327.66 235.13 320.83 239.8 323.61 232 317.06 226.96 325.33 227.19 328.11 219.4 330.44 227.33"/>
    <polygon class="cls-2" points="301.64 227.33 309.91 227.57 303.08 232.24 305.41 240.17 298.86 235.13 292.04 239.8 294.81 232 288.26 226.96 296.53 227.19 299.31 219.4 301.64 227.33"/>
  </g>
</svg>