<?xml version="1.0" encoding="UTF-8"?>
<svg xmlns="http://www.w3.org/2000/svg" viewBox="0 0 512 512">
  <defs>
    <style>
      .cls-1 {
        fill: none;
        stroke: #272525;
        stroke-miterlimit: 10;
        stroke-width: 5px;
      }

      .cls-2 {
        fill: #fff;
      }

      .cls-3 {
        fill: #a20016;
      }
    </style>
  </defs>
  <g id="Layer_3" data-name="Layer 3">
    <path class="cls-2" d="M262.42,67.3c26.82,0,38.16-30.94,38.16-30.94h76.33s111.91,121.71,111.91,121.71l-61.89,54.15-48.99-34.04-.52,127.9h-120.16s-2.31,0-2.31,0h-120.16l-.52-127.9-48.99,34.04-61.89-54.15,111.91-121.71h76.33s11.35,30.94,38.16,30.94h12.62Z"/>
    <polygon class="cls-2" points="260.21 409.36 267.43 450.62 284.45 465.06 377.8 465.06 377.8 307.77 254.03 307.77 259.12 307.77 135.35 307.77 135.35 465.06 228.7 465.06 245.71 450.62 252.93 409.36 260.21 409.36"/>
  </g>
  <g id="Layer_2" data-name="Layer 2">
    <polyline class="cls-3" points="134.48 177.28 378.28 177.28 378.28 190.83 134.48 190.83 134.48 177.28"/>
    <polyline class="cls-3" points="108.85 64.85 404.2 65.28 420.23 84.07 91.98 84.07 103.79 70.53"/>
    <line class="cls-3" x1="108.01" y1="66.96" x2="134.82" y2="36"/>
  </g>
  <g id="Layer_1" data-name="Layer 1">
    <polygon class="cls-3" points="426.45 211.86 414.39 203.52 479.29 147.08 488.34 157.71 426.45 211.86"/>
    <polygon class="cls-3" points="85.18 211.92 97.24 203.58 32.34 147.15 23.3 157.77 85.18 211.92"/>
    <path class="cls-1" d="M261.94,66.94c26.82,0,38.16-30.94,38.16-30.94h76.33s111.91,121.71,111.91,121.71l-61.89,54.15-48.99-34.04-.52,127.9h-120.16s-2.31,0-2.31,0h-120.16l-.52-127.9-48.99,34.04-61.89-54.15,111.91-121.71h76.33s11.35,30.94,38.16,30.94h12.62Z"/>
    <polygon class="cls-3" points="134.87 464.7 134.48 447.31 223.65 445.62 249.04 430.95 245.24 450.26 228.22 464.7 134.87 464.7"/>
    <polygon class="cls-3" points="379.01 466.17 379.4 448.78 290.24 447.08 264.84 432.41 268.65 451.73 285.67 466.17 379.01 466.17"/>
    <polygon class="cls-1" points="259.74 409.01 266.96 450.26 283.97 464.7 377.32 464.7 377.32 307.41 253.55 307.41 258.64 307.41 134.87 307.41 134.87 464.7 228.22 464.7 245.24 450.26 252.46 409.01 259.74 409.01"/>
    <path d="M283.86,116.83v-12.51h-12.76v12.31h-8.31v-12.71h-7.21s-6.88.01-6.88.01v12.71h-8.31v-12.31h-13.36v12.51h5.7v27.6h-6.12v10.08h29.36-.45s28.2-.01,28.2-.01v-10.08h-4.96v-27.6h5.1ZM261.89,151.02l-13.22-.04v-13.82h13.26l-.04,13.86Z"/>
    <polygon class="cls-3" points="213.21 124.89 221.48 125.12 214.66 129.79 216.99 137.73 210.44 132.68 203.61 137.35 206.39 129.56 199.84 124.51 208.1 124.74 210.88 116.95 213.21 124.89"/>
    <polygon class="cls-3" points="185.17 124.89 193.44 125.12 186.61 129.79 188.94 137.73 182.39 132.68 175.57 137.35 178.34 129.56 171.79 124.51 180.06 124.74 182.84 116.95 185.17 124.89"/>
    <polygon class="cls-3" points="156.38 124.89 164.64 125.12 157.82 129.79 160.15 137.73 153.6 132.68 146.77 137.35 149.55 129.56 143 124.51 151.27 124.74 154.04 116.95 156.38 124.89"/>
    <polygon class="cls-3" points="358.48 125.54 366.75 125.78 359.92 130.45 362.25 138.38 355.7 133.33 348.88 138 351.65 130.21 345.1 125.16 353.37 125.4 356.15 117.61 358.48 125.54"/>
    <polygon class="cls-3" points="330.44 125.54 338.71 125.78 331.88 130.45 334.21 138.38 327.66 133.33 320.83 138 323.61 130.21 317.06 125.16 325.33 125.4 328.11 117.61 330.44 125.54"/>
    <polygon class="cls-3" points="301.64 125.54 309.91 125.78 303.08 130.45 305.41 138.38 298.86 133.33 292.04 138 294.81 130.21 288.26 125.16 296.53 125.4 299.31 117.61 301.64 125.54"/>
  </g>
</svg>